<svg width="24" height="24" viewBox="0 0 22 18" fill="none" xmlns="http://www.w3.org/2000/svg">
<path d="M9.18799 1.75V2.95M9.18799 15.05V16.25M9.18799 7.04999V10.95M18.438 9.5C18.438 8.12 19.558 7 20.938 7V6C20.938 2 19.938 1 15.938 1H5.93799C1.93799 1 0.937988 2 0.937988 6V6.5C2.31799 6.5 3.43799 7.62 3.43799 9C3.43799 10.38 2.31799 11.5 0.937988 11.5V12C0.937988 16 1.93799 17 5.93799 17H15.938C19.938 17 20.938 16 20.938 12C19.558 12 18.438 10.88 18.438 9.5Z" stroke="currentColor" stroke-width="1.5" stroke-linecap="round" stroke-linejoin="round"/>
</svg>
