<svg width="22" height="22" viewBox="0 0 22 22" fill="none" xmlns="http://www.w3.org/2000/svg">
<path d="M7.93799 21H13.938C18.938 21 20.938 19 20.938 14V8C20.938 3 18.938 1 13.938 1H7.93799C2.93799 1 0.937988 3 0.937988 8V14C0.937988 19 2.93799 21 7.93799 21Z" stroke="currentColor" stroke-width="1.5" stroke-linecap="round" stroke-linejoin="round"/>
<path d="M14.438 17.5C15.538 17.5 16.438 16.6 16.438 15.5V6.5C16.438 5.4 15.538 4.5 14.438 4.5C13.338 4.5 12.438 5.4 12.438 6.5V15.5C12.438 16.6 13.328 17.5 14.438 17.5Z" stroke="currentColor" stroke-width="1.5" stroke-linecap="round" stroke-linejoin="round"/>
<path d="M7.43799 17.5C8.53799 17.5 9.43799 16.6 9.43799 15.5V12C9.43799 10.9 8.53799 10 7.43799 10C6.33799 10 5.43799 10.9 5.43799 12V15.5C5.43799 16.6 6.32799 17.5 7.43799 17.5Z" stroke="currentColor" stroke-width="1.5" stroke-linecap="round" stroke-linejoin="round"/>
</svg>
