<svg width="24" height="24" viewBox="0 0 20 22" fill="none" xmlns="http://www.w3.org/2000/svg">
<path d="M0.937988 8.10998V13.88C0.937988 16 0.937988 16 2.93799 17.35L8.43799 20.53C9.26799 21.01 10.618 21.01 11.438 20.53L16.938 17.35C18.938 16 18.938 16 18.938 13.89V8.10998C18.938 5.99998 18.938 5.99999 16.938 4.64999L11.438 1.46999C10.618 0.989985 9.26799 0.989985 8.43799 1.46999L2.93799 4.64999C0.937988 5.99999 0.937988 5.99998 0.937988 8.10998Z" stroke="currentColor" stroke-width="1.5" stroke-linecap="round" stroke-linejoin="round"/>
<path d="M9.93799 14C11.5948 14 12.938 12.6568 12.938 11C12.938 9.34313 11.5948 7.99999 9.93799 7.99999C8.28113 7.99999 6.93799 9.34313 6.93799 11C6.93799 12.6568 8.28113 14 9.93799 14Z" stroke="currentColor" stroke-width="1.5" stroke-linecap="round" stroke-linejoin="round"/>
</svg>
